<?xml version="1.0"?>
<svg xmlns="http://www.w3.org/2000/svg" xmlns:xlink="http://www.w3.org/1999/xlink" xmlns:svgjs="http://svgjs.com/svgjs" version="1.1" width="512" height="512" x="0" y="0" viewBox="0 0 512 512" style="enable-background:new 0 0 512 512" xml:space="preserve"><g><g xmlns="http://www.w3.org/2000/svg"><path d="m496 480h-48v-400a8 8 0 0 0 -8-8h-24v-24a8 8 0 0 0 -8-8h-112v-8a8 8 0 0 0 -16 0v8h-8v-24a8 8 0 0 0 -16 0v24h-8a8 8 0 0 0 -8 8v24h-24a8 8 0 0 0 -8 8v160h-80v-16a8 8 0 0 0 -16 0v16h-8v-40a8 8 0 0 0 -16 0v40h-16a8 8 0 0 0 -8 8v232h-48a8 8 0 0 0 0 16h480a8 8 0 0 0 0-16zm-288-72h-88v-32h88zm0-80h-88v-32h88zm0-48h-96a8 8 0 0 0 -8 8v48a8 8 0 0 0 8 8h96v16h-96a8 8 0 0 0 -8 8v48a8 8 0 0 0 8 8h96v56h-128v-224h128zm48-224h144v16h-144zm64 424h-48v-88h48zm64 0h-48v-88h48zm48 0h-32v-96a8 8 0 0 0 -8-8h-128a8 8 0 0 0 -8 8v96h-32v-392h208z" fill="#9b9b9b" data-original="#000000" style=""/><path d="m304 279h-48a8 8 0 0 0 -8 8v48a8 8 0 0 0 8 8h48a8 8 0 0 0 8-8v-48a8 8 0 0 0 -8-8zm-8 48h-32v-32h32z" fill="#9b9b9b" data-original="#000000" style=""/><path d="m400 279h-48a8 8 0 0 0 -8 8v48a8 8 0 0 0 8 8h48a8 8 0 0 0 8-8v-48a8 8 0 0 0 -8-8zm-8 48h-32v-32h32z" fill="#9b9b9b" data-original="#000000" style=""/><path d="m304 199h-48a8 8 0 0 0 -8 8v48a8 8 0 0 0 8 8h48a8 8 0 0 0 8-8v-48a8 8 0 0 0 -8-8zm-8 48h-32v-32h32z" fill="#9b9b9b" data-original="#000000" style=""/><path d="m400 199h-48a8 8 0 0 0 -8 8v48a8 8 0 0 0 8 8h48a8 8 0 0 0 8-8v-48a8 8 0 0 0 -8-8zm-8 48h-32v-32h32z" fill="#9b9b9b" data-original="#000000" style=""/><path d="m304 119h-48a8 8 0 0 0 -8 8v48a8 8 0 0 0 8 8h48a8 8 0 0 0 8-8v-48a8 8 0 0 0 -8-8zm-8 48h-32v-32h32z" fill="#9b9b9b" data-original="#000000" style=""/><path d="m400 119h-48a8 8 0 0 0 -8 8v48a8 8 0 0 0 8 8h48a8 8 0 0 0 8-8v-48a8 8 0 0 0 -8-8zm-8 48h-32v-32h32z" fill="#9b9b9b" data-original="#000000" style=""/></g></g></svg>
